<svg width="100" height="100" viewBox="0 0 100 100" fill="none" xmlns="http://www.w3.org/2000/svg">
<g clip-path="url(#clip0_1121_46)">
<rect x="-27.3216" y="93.3866" width="170" height="19" transform="rotate(-45 -27.3216 93.3866)" stroke="white"/>
<path d="M13.7596 71.6142C13.4664 71.9074 13.1449 72.1184 12.7954 72.2469C12.4439 72.3735 12.0923 72.4016 11.7408 72.3313C11.3872 72.259 11.0598 72.0722 10.7585 71.7708C10.4933 71.5057 10.3306 71.2385 10.2703 70.9693C10.208 70.6981 10.2171 70.4279 10.2974 70.1588C10.3778 69.8896 10.5003 69.6264 10.665 69.3693C10.8298 69.1081 11.0055 68.856 11.1924 68.613C11.4374 68.2956 11.6383 68.0405 11.795 67.8476C11.9517 67.6507 12.0471 67.489 12.0813 67.3625C12.1174 67.2339 12.0783 67.1124 11.9637 66.9979L11.9396 66.9738C11.6423 66.6765 11.33 66.5268 11.0025 66.5248C10.6771 66.5208 10.3507 66.6825 10.0232 67.0099C9.68373 67.3494 9.49189 67.6899 9.44769 68.0314C9.4035 68.3729 9.4266 68.6672 9.517 68.9143L8.60097 69.3482C8.44027 68.9464 8.38201 68.5668 8.42621 68.2092C8.4704 67.8476 8.58089 67.5162 8.75766 67.2148C8.93444 66.9095 9.13934 66.6403 9.37236 66.4073C9.52102 66.2586 9.70985 66.106 9.93885 65.9493C10.1679 65.7886 10.427 65.672 10.7163 65.5997C11.0075 65.5254 11.3229 65.5375 11.6624 65.6359C12.0019 65.7343 12.3555 65.9673 12.7231 66.335L15.7725 69.3844L15.0614 70.0955L14.4346 69.4687L14.3984 69.5049C14.4507 69.6535 14.4778 69.8414 14.4798 70.0684C14.4818 70.2954 14.4296 70.5424 14.3231 70.8096C14.2166 71.0768 14.0288 71.345 13.7596 71.6142ZM13.2293 70.8669C13.5105 70.5856 13.6923 70.2934 13.7747 69.99C13.8591 69.6847 13.8631 69.3954 13.7868 69.1222C13.7124 68.847 13.5788 68.613 13.386 68.4201L12.7351 67.7693C12.7412 67.8356 12.708 67.935 12.6357 68.0676C12.5634 68.1961 12.472 68.3378 12.3615 68.4924C12.251 68.6431 12.1415 68.7887 12.0331 68.9294C11.9246 69.066 11.8372 69.1774 11.7709 69.2638C11.6102 69.4727 11.4766 69.6847 11.3701 69.8996C11.2637 70.1105 11.2145 70.3185 11.2225 70.5234C11.2305 70.7242 11.3249 70.9151 11.5057 71.0959C11.7528 71.343 12.031 71.4384 12.3404 71.3821C12.6498 71.3219 12.9461 71.1501 13.2293 70.8669ZM17.0704 68.0864L12.4421 63.4581L13.1291 62.7711L13.8282 63.4701L13.8764 63.4219C13.7318 63.1085 13.6986 62.77 13.777 62.4064C13.8553 62.0429 14.0331 61.7224 14.3103 61.4452C14.3625 61.393 14.4288 61.3287 14.5092 61.2524C14.5895 61.176 14.6518 61.1198 14.696 61.0836L15.4192 61.8068C15.389 61.8249 15.3248 61.8711 15.2263 61.9454C15.1279 62.0157 15.0315 62.0981 14.9371 62.1925C14.7121 62.4175 14.5584 62.6656 14.476 62.9368C14.3937 63.204 14.3836 63.4711 14.4459 63.7383C14.5082 64.0015 14.6438 64.2375 14.8527 64.4464L17.7816 67.3753L17.0704 68.0864ZM22.0634 63.2863C21.6295 63.7202 21.1534 63.9914 20.6351 64.0999C20.1168 64.2084 19.5935 64.1672 19.0652 63.9763C18.5369 63.7855 18.0417 63.4591 17.5797 62.997C17.1096 62.527 16.7812 62.0258 16.5943 61.4934C16.4075 60.9571 16.3684 60.4318 16.4768 59.9175C16.5853 59.3992 16.8485 58.9312 17.2663 58.5133C17.5917 58.1879 17.9453 57.9549 18.327 57.8143C18.7086 57.6737 19.0913 57.6285 19.475 57.6787C19.8587 57.7289 20.2153 57.8786 20.5447 58.1277L19.8336 58.8388C19.5684 58.6821 19.2611 58.6158 18.9115 58.6399C18.562 58.66 18.2305 58.8267 17.9172 59.1401C17.6399 59.4173 17.4692 59.7327 17.4049 60.0863C17.3406 60.4358 17.3808 60.7994 17.5254 61.177C17.6701 61.5507 17.9172 61.9123 18.2667 62.2618C18.6243 62.6194 18.9919 62.8745 19.3695 63.0272C19.7492 63.1778 20.1158 63.223 20.4694 63.1628C20.8249 63.1005 21.1433 62.9287 21.4246 62.6475C21.6094 62.4627 21.745 62.2628 21.8314 62.0479C21.9177 61.8329 21.9529 61.613 21.9368 61.388C21.9207 61.163 21.8504 60.944 21.7259 60.7311L22.437 60.02C22.67 60.3333 22.8167 60.6789 22.8769 61.0565C22.9372 61.4302 22.9021 61.8108 22.7715 62.1985C22.6409 62.5822 22.4049 62.9448 22.0634 63.2863ZM22.7534 56.835L25.5376 59.6192L24.8265 60.3303L18.6554 54.1592L19.3665 53.4481L21.6325 55.714L21.6927 55.6538C21.5622 55.3063 21.5351 54.9537 21.6114 54.5961C21.6877 54.2345 21.9077 53.872 22.2713 53.5084C22.5867 53.193 22.9262 52.98 23.2898 52.8695C23.6513 52.7571 24.027 52.7651 24.4167 52.8937C24.8064 53.0182 25.2002 53.2793 25.5979 53.6771L28.5388 56.618L27.8277 57.3291L24.935 54.4364C24.5674 54.0688 24.1877 53.88 23.796 53.8699C23.4043 53.8559 23.0407 54.0166 22.7052 54.3521C22.4722 54.5851 22.3125 54.8432 22.2261 55.1265C22.1417 55.4077 22.1407 55.696 22.2231 55.9913C22.3074 56.2846 22.4842 56.5658 22.7534 56.835ZM29.8398 55.3171L25.2115 50.6887L25.9226 49.9776L30.5509 54.6059L29.8398 55.3171ZM24.8017 49.5557C24.663 49.6943 24.4963 49.7667 24.3015 49.7727C24.1086 49.7767 23.9459 49.7124 23.8133 49.5798C23.6807 49.4473 23.6164 49.2845 23.6205 49.0917C23.6265 48.8968 23.6988 48.7301 23.8374 48.5915C23.976 48.4529 24.1418 48.3816 24.3346 48.3776C24.5295 48.3715 24.6932 48.4348 24.8258 48.5674C24.9583 48.7 25.0216 48.8637 25.0156 49.0586C25.0116 49.2514 24.9403 49.4171 24.8017 49.5557ZM31.0097 44.8905L33.9265 51.2303L33.2033 51.9535L26.8635 49.0367L27.6349 48.2653L32.6007 50.6759L32.6489 50.6277L30.2383 45.6619L31.0097 44.8905ZM38.4479 46.9018C38.0019 47.3478 37.5188 47.634 36.9985 47.7606C36.4782 47.8831 35.9529 47.854 35.4226 47.6732C34.8922 47.4884 34.39 47.159 33.9159 46.6849C33.4419 46.2108 33.1104 45.7066 32.9216 45.1722C32.7328 44.6339 32.6926 44.1076 32.8011 43.5933C32.9095 43.075 33.1727 42.607 33.5905 42.1891C33.8316 41.9481 34.1098 41.7502 34.4252 41.5955C34.7406 41.4408 35.0851 41.3575 35.4587 41.3454C35.8304 41.3314 36.2211 41.4147 36.6309 41.5955C37.0407 41.7763 37.4615 42.0827 37.8934 42.5146L38.1947 42.8159L34.6271 46.3836L34.0124 45.7689L36.8569 42.9244C36.5957 42.6632 36.3105 42.4824 36.0011 42.382C35.6938 42.2795 35.3854 42.2645 35.076 42.3368C34.7687 42.4071 34.4865 42.5708 34.2293 42.8279C33.9461 43.1112 33.7713 43.4266 33.705 43.7741C33.6387 44.1176 33.6618 44.4561 33.7743 44.7895C33.8868 45.123 34.0706 45.4173 34.3257 45.6724L34.7355 46.0822C35.0851 46.4318 35.4417 46.6678 35.8052 46.7903C36.1688 46.9089 36.5224 46.9229 36.8659 46.8325C37.2074 46.7401 37.5218 46.5503 37.8091 46.263C37.9959 46.0762 38.1385 45.8813 38.2369 45.6785C38.3354 45.4715 38.3866 45.2596 38.3906 45.0427C38.3926 44.8237 38.3434 44.6037 38.243 44.3828L39.1228 43.8886C39.2835 44.1939 39.3669 44.5204 39.3729 44.8679C39.3769 45.2134 39.3026 45.5609 39.1499 45.9105C38.9953 46.258 38.7612 46.5885 38.4479 46.9018ZM43.1937 42.156C42.808 42.5417 42.3701 42.7847 41.8799 42.8852C41.3878 42.9836 40.8795 42.9374 40.3552 42.7466C39.8289 42.5537 39.3207 42.2122 38.8305 41.7221C38.3444 41.2359 38.0059 40.7307 37.8151 40.2064C37.6242 39.6821 37.58 39.1739 37.6825 38.6817C37.7849 38.1896 38.031 37.7486 38.4207 37.3589C38.7221 37.0576 39.0103 36.8698 39.2855 36.7954C39.5608 36.7171 39.8078 36.695 40.0268 36.7291C40.2458 36.7593 40.4215 36.7884 40.5541 36.8165L40.6144 36.7563L38.3364 34.4782L39.0475 33.7671L45.2186 39.9382L44.5316 40.6253L43.8205 39.9141L43.7361 39.9985C43.7682 40.1351 43.8004 40.3159 43.8325 40.5409C43.8627 40.7639 43.8385 41.015 43.7602 41.2942C43.6798 41.5714 43.491 41.8587 43.1937 42.156ZM42.6513 41.4207C42.9366 41.1355 43.1033 40.8201 43.1515 40.4746C43.1977 40.1271 43.1395 39.7695 42.9768 39.4019C42.812 39.0323 42.5549 38.6727 42.2054 38.3231C41.8599 37.9776 41.5073 37.7255 41.1477 37.5668C40.7861 37.4061 40.4346 37.3519 40.0931 37.4041C39.7496 37.4543 39.4332 37.6241 39.1439 37.9133C38.8426 38.2147 38.6688 38.5431 38.6226 38.8987C38.5764 39.2502 38.6347 39.6078 38.7974 39.9714C38.9601 40.331 39.2042 40.6735 39.5296 40.9989C39.8591 41.3283 40.2086 41.5774 40.5782 41.7462C40.9478 41.9109 41.3114 41.9732 41.669 41.933C42.0266 41.8888 42.354 41.7181 42.6513 41.4207ZM47.367 33.4748C47.2184 33.6235 47.0376 33.6978 46.8247 33.6978C46.6117 33.6978 46.4309 33.6235 46.2823 33.4748C46.1336 33.3262 46.0593 33.1454 46.0593 32.9325C46.0593 32.7195 46.1336 32.5387 46.2823 32.3901C46.4309 32.2414 46.6117 32.1671 46.8247 32.1671C47.0376 32.1671 47.2184 32.2414 47.367 32.3901C47.4655 32.4885 47.5308 32.604 47.5629 32.7366C47.5971 32.8672 47.5981 32.9987 47.5659 33.1313C47.5338 33.2599 47.4675 33.3744 47.367 33.4748ZM53.7174 31.4394L53.1751 30.897L52.9822 26.6303C52.9601 26.1301 52.93 25.7062 52.8918 25.3587C52.8516 25.0091 52.7833 24.7118 52.6869 24.4668C52.5905 24.2177 52.4479 23.9987 52.259 23.8099C52.0421 23.5929 51.802 23.4573 51.5389 23.4031C51.2777 23.3468 51.0146 23.3649 50.7494 23.4573C50.4842 23.5497 50.2402 23.7074 50.0172 23.9304C49.7802 24.1674 49.6225 24.4236 49.5441 24.6988C49.4658 24.97 49.4658 25.2412 49.5441 25.5124C49.6245 25.7815 49.7822 26.0336 50.0172 26.2687L49.3061 26.9798C48.9445 26.6182 48.7105 26.2174 48.604 25.7775C48.4975 25.3376 48.5116 24.8976 48.6462 24.4577C48.7828 24.0158 49.0309 23.615 49.3904 23.2554C49.752 22.8938 50.1488 22.6498 50.5807 22.5232C51.0126 22.3967 51.4374 22.3836 51.8553 22.484C52.2731 22.5845 52.6407 22.7934 52.9581 23.1108C53.1851 23.3378 53.3659 23.601 53.5005 23.9003C53.6351 24.1956 53.7345 24.5762 53.7988 25.0423C53.8631 25.5043 53.9083 26.1019 53.9344 26.8352L54.0308 29.7038L54.079 29.752L56.9476 26.8834L57.6106 27.5463L53.7174 31.4394ZM60.9522 24.3733C60.4982 24.8273 59.988 25.0905 59.4215 25.1628C58.853 25.2331 58.2484 25.1166 57.6075 24.8133C56.9647 24.5079 56.3078 24.0198 55.6369 23.3488C54.97 22.6819 54.4848 22.028 54.1815 21.3872C53.8782 20.7424 53.7616 20.1357 53.832 19.5672C53.9023 18.9947 54.1624 18.4835 54.6124 18.0335C55.0624 17.5835 55.5726 17.3244 56.1431 17.2561C56.7136 17.1838 57.3203 17.3003 57.9631 17.6056C58.6059 17.9069 59.2608 18.3911 59.9277 19.058C60.5987 19.7289 61.0868 20.3858 61.3922 21.0287C61.6955 21.6695 61.812 22.2741 61.7417 22.8426C61.6694 23.4091 61.4062 23.9194 60.9522 24.3733ZM60.2893 23.7104C60.7393 23.2605 60.8719 22.694 60.6871 22.011C60.5023 21.328 60.0081 20.5847 59.2046 19.7812C58.6702 19.2468 58.158 18.8491 57.6678 18.5879C57.1797 18.3248 56.7307 18.2012 56.3209 18.2173C55.9131 18.2314 55.5605 18.387 55.2632 18.6844C54.8173 19.1303 54.6887 19.6988 54.8775 20.3898C55.0644 21.0789 55.5585 21.8241 56.3601 22.6257C56.8944 23.16 57.4046 23.5578 57.8908 23.8189C58.3769 24.0801 58.8229 24.2026 59.2287 24.1865C59.6365 24.1684 59.99 24.0097 60.2893 23.7104ZM60.1567 12.6579L66.3279 18.829L65.5806 19.5763L60.1929 14.1886L60.1567 14.2248L59.6505 16.7318L58.8912 15.9724L59.4095 13.4052L60.1567 12.6579ZM68.2955 16.8613L65.5956 8.64123L65.5474 8.59301L62.3654 11.775L61.7025 11.1121L65.6559 7.15871L66.355 7.85778L69.0789 16.0779L68.2955 16.8613Z" fill="black"/>
</g>
<defs>
<clipPath id="clip0_1121_46">
<rect width="100" height="100" fill="white"/>
</clipPath>
</defs>
</svg>
