<?xml version="1.0" encoding="utf-8"?>
<!-- Generator: Adobe Illustrator 16.0.0, SVG Export Plug-In . SVG Version: 6.00 Build 0)  -->
<svg version="1.2" baseProfile="tiny" id="Layer_1" xmlns="http://www.w3.org/2000/svg" xmlns:xlink="http://www.w3.org/1999/xlink"
	 x="0px" y="0px" width="612px" height="792px" viewBox="0 0 612 792" xml:space="preserve">
<path id="facebook" d="M11.8,8.2v6.6H9.1V8.2H7.7V5.9h1.4V4.6c0-1.9,1.1-3,3-3h1.8v2.3h-1.1c-0.7,0-0.9,0.3-0.9,0.9v1.1h2.1
	l-0.2,2.3H11.8z M15.1,0.9C14.5,0.3,13.8,0,13,0H3C1.4,0,0,1.4,0,3v10c0,0.8,0.3,1.5,0.9,2.1C1.5,15.7,2.2,16,3,16h10
	c1.6,0,3-1.4,3-3V3C16,2.2,15.7,1.5,15.1,0.9C14.5,0.3,15.7,1.5,15.1,0.9z"/>
<path id="tweet" d="M12.2,6.2c0.6,5.1-5.6,8.1-9.6,5.5c1.2,0.1,2.3-0.2,3.2-0.9c-0.5,0-0.9-0.2-1.3-0.4S4,9.7,3.9,9.3
	c0.3,0.1,0.6,0.1,0.9,0C3.8,9,3,8.1,3,7.1v0c0.4,0.2,0.7,0.3,1,0.3c-1-0.6-1.2-1.9-0.6-2.9c1.1,1.4,2.8,2.2,4.5,2.3
	c-0.6-2.1,2.3-3.6,3.7-2c0.5-0.1,0.9-0.3,1.4-0.5c-0.2,0.5-0.5,0.9-1,1.2c0.5-0.1,0.9-0.2,1.3-0.4C13,5.5,12.7,5.8,12.2,6.2
	C12.2,6.2,12.7,5.8,12.2,6.2z M15.1,0.9C14.5,0.3,13.8,0,13,0H3C1.4,0,0,1.4,0,3v10c0,0.8,0.3,1.5,0.9,2.1C1.5,15.7,2.2,16,3,16h10
	c1.6,0,3-1.4,3-3V3C16,2.2,15.7,1.5,15.1,0.9C14.5,0.3,15.7,1.5,15.1,0.9z"/>
<path id="sms" d="M15.1,0.9C14.5,0.3,13.8,0,13,0H3C1.4,0,0,1.4,0,3v10c0,1.6,1.4,3,3,3h10c1.6,0,3-1.4,3-3V3
	C16,2.2,15.7,1.5,15.1,0.9C14.5,0.3,15.7,1.5,15.1,0.9z M13.2,10c-1.5,1.9-4.4,2.4-6.7,2c-0.9,0.7-2,1.1-3.1,1.2h0
	c-0.1,0-0.2-0.1-0.3-0.2c0-0.1,0-0.1,0-0.2l0,0c0,0,0.1-0.1,0.1-0.2c0.4-0.5,0.8-0.8,1-1.4c-4.3-2.5-1.5-7.1,2.5-7.7
	C10.1,3,16.5,5.8,13.2,10C12.7,10.6,13.7,9.3,13.2,10z"/>
<path id="call" d="M13.1,12.1c-0.8,1.7-3,1.1-4.3,0.7c-1.1-0.4-2.3-1.2-3.3-2.3C4.4,9.5,3.6,8.4,3.2,7.2c-0.4-1.3-1-3.5,0.7-4.3
	c1.5-0.6,1.7,0.5,2.3,1.7C7.1,6,4.6,6.1,5.5,7.4c0.7,1.3,1.8,2.4,3.1,3.1c1.3,0.9,1.4-1.6,2.9-0.7l0.6,0.3c0.4,0.2,0.7,0.4,0.9,0.5
	c0.2,0.1,0.4,0.3,0.4,0.3C13.4,11.3,13.2,11.9,13.1,12.1C13,12.5,13.3,11.8,13.1,12.1z M15.1,0.9C14.5,0.3,13.8,0,13,0H3
	C1.4,0,0,1.4,0,3v10c0,0.8,0.3,1.5,0.9,2.1C1.5,15.7,2.2,16,3,16h10c1.6,0,3-1.4,3-3V3C16,2.2,15.7,1.5,15.1,0.9
	C14.5,0.3,15.7,1.5,15.1,0.9z"/>
<path id="Mail" d="M15.1,0.9C14.5,0.3,13.8,0,13,0H3C1.4,0,0,1.4,0,3v10c0,1.6,1.4,3,3,3h10c1.6,0,3-1.4,3-3V3
	C16,2.2,15.7,1.5,15.1,0.9C14.5,0.3,15.7,1.5,15.1,0.9z M13.7,11.5c0,0.6-0.5,1-1,1H3.3c-0.6,0-1-0.5-1-1V6.4c0.9,1,2.2,1.6,3.3,2.4
	C6.3,9.3,7.1,10,8,10h0h0c1,0,1.8-0.8,2.5-1.3c1-0.7,2.4-1.4,3.2-2.3V11.5z M13.4,5.5c-0.7,1.1-2.1,1.7-3.2,2.5
	C9.6,8.4,8.8,9.2,8,9.2h0h0c-1.2,0-2.9-1.8-3.8-2.4C3.6,6.5,3,6.1,2.6,5.5c-0.5-0.7-0.5-2,0.7-2h9.4C13.8,3.5,13.9,4.8,13.4,5.5
	C13.2,5.8,13.6,5.2,13.4,5.5z"/>
</svg>
