<?xml version="1.0" encoding="utf-8"?>
<!-- Generator: Adobe Illustrator 16.0.0, SVG Export Plug-In . SVG Version: 6.00 Build 0)  -->
<!DOCTYPE svg PUBLIC "-//W3C//DTD SVG 1.1//EN" "http://www.w3.org/Graphics/SVG/1.1/DTD/svg11.dtd">
<svg version="1.1" id="Layer_1" xmlns="http://www.w3.org/2000/svg" xmlns:xlink="http://www.w3.org/1999/xlink" x="0px" y="0px"
	 width="612px" height="792px" viewBox="0 0 612 792" enable-background="new 0 0 612 792" xml:space="preserve">
<path id="facebook" opacity="0.5" enable-background="new    " d="M377.333,263.333V475H290V263.333h-43.667v-73H290v-43.667
	c0-31.333,7.333-55,22-71c14.667-16,38.889-24,72.667-24H443v73h-36.667c-12.444,0-20.389,2.167-23.833,6.5
	c-3.444,4.333-5.167,11.944-5.167,22.833v36.333h66l-7.666,73H377.333z M483.833,28.167C465.056,9.389,442.444,0,416,0H96
	C69.556,0,46.944,9.389,28.167,28.167C9.389,46.944,0,69.556,0,96v320c0,26.444,9.389,49.056,28.167,67.833
	C46.944,502.611,69.556,512,96,512h320c26.444,0,49.056-9.389,67.833-28.167C502.611,465.056,512,442.444,512,416V96
	C512,69.556,502.611,46.944,483.833,28.167z"/>
<path id="tweet" opacity="0.5" enable-background="new    " d="M391.667,197c0.222,2,0.333,5,0.333,9
	c0,18.667-2.723,37.389-8.167,56.167c-5.444,18.778-13.777,36.778-25,54c-11.222,17.223-24.61,32.445-40.166,45.667
	c-15.556,13.222-34.223,23.778-56,31.667c-21.777,7.889-45.111,11.833-70,11.833c-38.667,0-74.444-10.444-107.333-31.333
	c5.333,0.667,10.889,1,16.667,1c32.222,0,61.222-10,87-30c-15.111-0.222-28.611-4.889-40.5-14
	c-11.889-9.111-20.167-20.667-24.833-34.667c5.778,0.889,10.111,1.333,13,1.333c4.889,0,10.556-0.889,17-2.667
	c-16.222-3.111-29.889-11.167-41-24.167C101.556,257.833,96,243,96,226.333v-0.667c11.778,5.556,22.889,8.444,33.333,8.667
	C109.111,220.778,99,201.333,99,176c0-12.444,3.222-24.222,9.667-35.333c17.556,21.556,38.889,38.778,64,51.667
	c25.111,12.889,52,20.111,80.667,21.667c-1.111-4.222-1.667-9.556-1.667-16c0-19.333,6.833-35.833,20.5-49.5
	c13.667-13.667,30.167-20.5,49.5-20.5c20.444,0,37.444,7.333,51,22c15.333-2.889,30.222-8.556,44.666-17
	c-5.556,17.111-15.889,30.111-31,39c14.444-2,27.89-5.778,40.334-11.333C417.333,174.889,405.667,187,391.667,197z M483.833,28.167
	C465.056,9.389,442.444,0,416,0H96C69.556,0,46.944,9.389,28.167,28.167C9.389,46.944,0,69.556,0,96v320
	c0,26.444,9.389,49.056,28.167,67.833C46.944,502.611,69.556,512,96,512h320c26.444,0,49.056-9.389,67.833-28.167
	C502.611,465.056,512,442.444,512,416V96C512,69.556,502.611,46.944,483.833,28.167z"/>
<path id="sms" opacity="0.5" enable-background="new    " d="M483.833,28.167C465.056,9.389,442.444,0,416,0H96
	C69.556,0,46.944,9.389,28.167,28.167C9.389,46.944,0,69.556,0,96v320c0,26.444,9.389,49.056,28.167,67.833
	C46.944,502.611,69.556,512,96,512h320c26.444,0,49.056-9.389,67.833-28.167C502.611,465.056,512,442.444,512,416V96
	C512,69.556,502.611,46.944,483.833,28.167z M422.075,319.211c-17.062,21.417-40.34,38.343-69.834,50.775
	c-29.493,12.433-61.574,18.649-96.241,18.649c-15.609,0-31.582-1.452-47.917-4.356c-22.507,15.973-47.735,27.589-75.687,34.849
	c-6.534,1.634-14.339,3.086-23.414,4.356h-0.817c-1.996,0-3.857-0.727-5.581-2.179s-2.768-3.357-3.131-5.717
	c-0.182-0.545-0.272-1.135-0.272-1.771c0-0.635,0.046-1.225,0.136-1.77c0.091-0.544,0.272-1.089,0.544-1.633l0.681-1.361
	c0,0,0.318-0.5,0.953-1.498s0.998-1.452,1.089-1.36c0.091,0.091,0.499-0.364,1.225-1.362c0.726-0.997,1.089-1.406,1.089-1.225
	c0.908-1.089,2.995-3.357,6.262-6.807c3.268-3.448,5.627-6.125,7.079-8.031c1.452-1.906,3.494-4.538,6.125-7.896
	s4.9-6.852,6.807-10.482c1.906-3.63,3.766-7.623,5.581-11.979c-22.506-13.068-40.203-29.131-53.089-48.189
	c-12.886-19.058-19.33-39.386-19.33-60.985c0-25.229,8.53-48.552,25.592-69.969c17.061-21.417,40.339-38.343,69.833-50.776
	c29.494-12.433,61.575-18.649,96.242-18.649s66.748,6.217,96.241,18.649c29.494,12.433,52.772,29.358,69.834,50.776
	c17.061,21.417,25.592,44.74,25.592,69.969S439.136,297.794,422.075,319.211z"/>
<path id="call" opacity="0.5" enable-background="new    " d="M419.333,388.667c-4.666,10.222-15.166,19.112-31.5,26.667
	c-16.333,7.556-30.833,11.334-43.5,11.334c-3.556,0-7.333-0.278-11.333-0.834c-4-0.555-7.389-1.111-10.167-1.666
	c-2.777-0.556-6.444-1.556-11-3c-4.556-1.445-7.833-2.556-9.833-3.334c-2-0.777-5.667-2.166-11-4.166s-8.667-3.223-10-3.667
	c-36.444-13.333-72.056-37.389-106.833-72.167C139.389,303.056,115.333,267.444,102,231c-0.444-1.333-1.667-4.667-3.667-10
	s-3.389-9-4.167-11c-0.777-2-1.889-5.278-3.333-9.833s-2.444-8.222-3-11C87.278,186.389,86.722,183,86.167,179
	s-0.833-7.778-0.833-11.333c0-12.667,3.777-27.167,11.333-43.5c7.556-16.333,16.444-26.833,26.667-31.5
	c11.777-4.889,23-7.333,33.667-7.333c2.444,0,4.222,0.222,5.333,0.667c1.111,0.444,2.944,2.444,5.5,6s5.333,8.056,8.333,13.5
	s5.944,10.722,8.833,15.833c2.889,5.111,5.667,10.167,8.333,15.167c2.667,5,4.333,8.167,5,9.5c0.667,1.111,2.111,3.222,4.333,6.333
	c2.223,3.111,3.889,5.889,5,8.333c1.111,2.444,1.667,4.778,1.667,7c0,3.333-2.278,7.389-6.833,12.167
	c-4.556,4.777-9.556,9.167-15,13.167s-10.444,8.278-15,12.833s-6.833,8.277-6.833,11.167c0,1.556,0.389,3.389,1.167,5.5
	c0.777,2.111,1.5,3.833,2.167,5.167c0.667,1.333,1.722,3.223,3.167,5.667s2.389,4,2.833,4.667
	c12.222,22,26.278,40.944,42.167,56.833C233.056,310.722,252,324.778,274,337c0.667,0.445,2.222,1.389,4.667,2.833
	c2.444,1.444,4.333,2.5,5.667,3.167c1.333,0.667,3.056,1.389,5.167,2.167c2.111,0.778,3.944,1.167,5.5,1.167
	c3.556,0,8.444-3.667,14.667-11c6.222-7.333,12.556-14.611,19-21.833s11.666-10.833,15.666-10.833c2.223,0,4.556,0.556,7,1.667
	c2.444,1.111,5.223,2.777,8.334,5c3.11,2.222,5.222,3.667,6.333,4.333l17.667,9.667c11.777,6.222,21.61,11.722,29.5,16.5
	c7.889,4.778,12.166,8.055,12.833,9.833c0.444,1.111,0.667,2.889,0.667,5.333C426.667,365.667,424.223,376.889,419.333,388.667z
	 M483.833,28.167C465.056,9.389,442.444,0,416,0H96C69.556,0,46.944,9.389,28.167,28.167C9.389,46.944,0,69.556,0,96v320
	c0,26.444,9.389,49.056,28.167,67.833C46.944,502.611,69.556,512,96,512h320c26.444,0,49.056-9.389,67.833-28.167
	C502.611,465.056,512,442.444,512,416V96C512,69.556,502.611,46.944,483.833,28.167z"/>
<path id="Mail" opacity="0.5" enable-background="new    " d="M483.833,28.167C465.056,9.389,442.444,0,416,0H96
	C69.556,0,46.944,9.389,28.167,28.167C9.389,46.944,0,69.556,0,96v320c0,26.444,9.389,49.056,28.167,67.833
	C46.944,502.611,69.556,512,96,512h320c26.444,0,49.056-9.389,67.833-28.167C502.611,465.056,512,442.444,512,416V96
	C512,69.556,502.611,46.944,483.833,28.167z M439.333,367.309c0,9.003-3.205,16.71-9.616,23.122s-14.118,9.617-23.121,9.617H105.405
	c-9.003,0-16.71-3.206-23.121-9.617s-9.617-14.118-9.617-23.122V204.846c6.002,6.685,12.891,12.618,20.666,17.802
	c49.38,33.556,83.277,57.086,101.693,70.591c7.775,5.729,14.084,10.196,18.927,13.402s11.288,6.479,19.336,9.822
	c8.048,3.342,15.55,5.013,22.507,5.013H256h0.205c6.957,0,14.459-1.671,22.507-5.013c8.048-3.342,14.494-6.616,19.336-9.822
	s11.151-7.673,18.927-13.402c23.189-16.779,57.155-40.309,101.897-70.591c7.775-5.32,14.596-11.254,20.461-17.802V367.309z
	 M429.308,175.587c-6.685,9.822-15.006,18.21-24.963,25.167c-51.29,35.603-83.209,57.77-95.759,66.499
	c-1.364,0.955-4.263,3.036-8.696,6.241c-4.434,3.206-8.116,5.797-11.049,7.775c-2.933,1.978-6.479,4.194-10.64,6.649
	c-4.161,2.456-8.083,4.297-11.766,5.525c-3.683,1.228-7.093,1.841-10.23,1.841H256h-0.205c-3.138,0-6.548-0.614-10.23-1.841
	c-3.683-1.228-7.605-3.069-11.766-5.525c-4.16-2.455-7.707-4.672-10.64-6.649c-2.933-1.978-6.616-4.57-11.049-7.775
	c-4.433-3.206-7.332-5.286-8.696-6.241c-12.413-8.729-30.282-21.177-53.608-37.342c-23.326-16.164-37.308-25.883-41.946-29.157
	c-8.457-5.729-16.437-13.606-23.939-23.633c-7.502-10.026-11.254-19.336-11.254-27.93c0-10.64,2.831-19.506,8.492-26.6
	s13.743-10.64,24.247-10.64h301.191c8.866,0,16.539,3.206,23.019,9.617c6.479,6.412,9.719,14.119,9.719,23.121
	C439.333,155.467,435.991,165.766,429.308,175.587z"/>
</svg>
